<svg width="64" xmlns="http://www.w3.org/2000/svg" height="64" fill="none"><defs><clipPath id="a" class="frame-clip frame-clip-def"><rect rx="0" ry="0" width="64" height="64" transform="matrix(1.000000, 0.000000, 0.000000, 1.000000, 0.000000, 0.000000)"/></clipPath></defs><g clip-path="url(#a)"><g class="fills"><rect rx="0" ry="0" width="64" height="64" transform="matrix(1.000000, 0.000000, 0.000000, 1.000000, 0.000000, 0.000000)" class="frame-background"/></g><g class="frame-children"><ellipse cx="32" cy="32" rx="28" ry="28" transform="matrix(-0.000000, -1.000000, 1.000000, -0.000000, 0.000000, 64.000000)" class="fills"/><g class="strokes"><ellipse cx="32" cy="32" rx="28" ry="28" transform="matrix(-0.000000, -1.000000, 1.000000, -0.000000, 0.000000, 64.000000)" style="fill: none; stroke-width: 2; stroke: rgb(86, 86, 143); stroke-opacity: 1; stroke-dasharray: 0, 7; stroke-linecap: round;" class="stroke-shape"/></g><ellipse cx="32" cy="32" rx="6" ry="6" transform="matrix(1.000000, 0.000000, 0.000000, 1.000000, 0.000000, 0.000000)" style="fill: rgb(86, 86, 143); fill-opacity: 1;" class="fills"/><ellipse cx="32" cy="4" rx="4" ry="4" transform="matrix(1.000000, 0.000000, 0.000000, 1.000000, 0.000000, 0.000000)" style="fill: rgb(32, 32, 60); fill-opacity: 1;" class="fills"/><g class="strokes"><g class="inner-stroke-shape" transform="matrix(1.000000, 0.000000, 0.000000, 1.000000, 0.000000, 0.000000)"><defs><clipPath id="c"><use href="#b"/></clipPath><ellipse cx="32" cy="4" rx="4" ry="4" id="b" style="fill: none; stroke-width: 2; stroke: rgb(86, 86, 143); stroke-opacity: 1;"/></defs><use href="#b" clip-path="url('#c')"/></g></g></g></g></svg>